<svg width="151" height="41" viewBox="0 0 151 41" fill="none" xmlns="http://www.w3.org/2000/svg">
<path d="M11.6041 11.0957C9.21124 11.0957 0.649062 12.1212 0.0142244 14.6117C-0.213666 15.4907 2.37452 13.8304 2.21174 19.6904C2.16291 21.6601 2.29313 23.2553 2.29313 24.8668C2.29313 28.2852 2.21174 31.0199 2.14663 33.4453C2.0978 35.2033 2.04896 36.7334 2.04896 38.117C2.04896 40.4936 4.06742 40.4936 4.71854 40.4936C6.24866 40.4936 8.21828 40.0215 8.29967 40.0053C8.82057 39.875 9.1624 39.3541 9.06474 38.8332C9.06474 38.8007 8.54384 35.9521 8.54384 34.3731C8.54384 33.6406 8.59268 31.8012 8.62523 30.4013C9.19496 30.4664 9.89491 30.5152 10.5949 30.5152C18.1152 30.5152 22.6079 26.8039 22.6079 20.5857C22.6242 14.4652 18.7013 11.0957 11.6041 11.0957ZM10.839 24.7366C10.0089 24.7366 9.22751 24.6552 8.67407 24.5738C8.62523 20.7973 8.49501 18.144 8.4299 16.9232C9.35774 16.8092 10.2856 16.7604 11.2297 16.7604C14.3713 16.7604 15.9666 18.0626 15.9666 20.6183C15.9666 22.3763 15.4294 24.7366 10.839 24.7366Z" fill="white"/>
<path d="M74.2908 33.0382C74.128 32.8266 73.8675 32.6801 73.5908 32.6476C73.3141 32.615 73.0374 32.6964 72.8257 32.8755C71.7514 33.7545 69.9283 34.7963 67.2913 34.7963C62.9613 34.7963 60.3731 31.5244 60.3731 26.0713C60.3731 20.6996 63.059 16.9557 66.9169 16.9557C68.3005 16.9557 69.2934 17.2161 70.205 17.2812C77.5789 17.8184 74.6977 8.93068 74.1117 9.79341C72.5653 12.0398 69.9446 10.8352 67.1285 10.9817C63.0102 11.2096 59.543 12.642 57.1013 15.7999C54.9363 18.5835 53.748 22.3925 53.748 26.4945C53.748 35.2195 59.0546 40.8516 67.2587 40.8516C71.3445 40.8516 75.5767 39.289 75.5767 36.6845C75.5441 35.4637 75.0395 34.0149 74.2908 33.0382Z" fill="white"/>
<path d="M99.3583 9.54932C98.7723 9.54932 99.2444 10.7864 97.4538 11.0957C95.6144 11.405 85.7337 11.3562 84.0246 11.3236C82.413 11.2911 80.8992 11.2585 79.6621 11.2585C77.9692 11.2585 77.1064 12.1049 77.1064 13.7816C77.1064 14.628 77.2529 16.0605 77.2692 16.1256C77.3181 16.5976 77.6924 16.972 78.1645 17.0371C79.6295 17.2325 82.6084 17.3953 85.1314 17.4767C85.1152 19.8695 85.0501 22.7181 85.0012 25.5017C84.9361 29.3432 84.871 33.315 84.871 36.1148C84.871 36.8636 84.9036 38.231 85.1477 38.9798C85.1477 38.996 85.164 39.0123 85.164 39.0286C85.6849 40.3308 86.8081 40.5099 87.9638 40.5099C88.7777 40.5099 90.0637 40.4285 91.024 40.168C91.5449 40.0378 91.8705 39.5169 91.7728 38.9798C91.7728 38.9635 91.4798 37.4822 91.4798 36.2451C91.4473 34.2592 91.3984 29.8641 91.3984 28.155C91.3984 26.4621 91.4147 24.5901 91.431 22.6693C91.4473 20.9764 91.4636 19.2347 91.4636 17.5418C93.1565 17.5418 95.7446 17.6883 97.0794 17.379C101.833 16.2721 100.107 9.54932 99.3583 9.54932Z" fill="white"/>
<path d="M149.755 34.1125C148.632 34.1125 148.469 34.1125 147.443 32.0614C145.295 27.7966 144.123 25.7782 142.755 24.5899C145.49 20.3576 147.704 17.8508 150.699 14.8557C151.09 14.465 151.106 13.8302 150.715 13.4233C150.683 13.3907 149.755 12.4303 148.778 11.6978C147.606 10.8188 145.767 10.2816 143.748 12.8047C141.551 15.5719 139.06 19.6251 137.254 22.7505C136.684 22.7179 136.049 22.6854 135.284 22.6691C135.365 17.7695 135.43 14.8232 135.43 14.7418C135.544 12.4303 134.551 11.535 131.524 11.242C128.577 10.9653 125.159 13.8628 126.95 13.6837C129.196 13.4721 128.887 15.8324 128.919 18.8112C128.903 23.5481 128.838 29.1151 128.773 34.0962L128.724 37.2704C128.724 39.1912 129.229 40.4771 131.703 40.4771C132.533 40.4771 133.737 40.3469 134.682 40.1516C134.942 40.1027 135.186 39.9399 135.333 39.7121C135.479 39.4842 135.528 39.2074 135.479 38.9307C135.479 38.9144 135.154 37.4494 135.154 36.196C135.154 34.4055 135.154 31.215 135.219 27.8292C136.83 27.8943 137.433 28.0734 138.116 28.5943C138.93 29.2454 139.793 31.0359 140.802 33.1032C141.095 33.7218 141.404 34.3566 141.746 35.0403C143.651 38.8493 144.627 40.526 147.769 40.526C149.869 40.526 150.943 39.4516 150.943 37.3192C150.943 36.1635 150.748 35.0077 150.732 34.9589C150.683 34.4706 150.26 34.1125 149.755 34.1125Z" fill="white"/>
<path d="M35.2072 9.12608C42.8578 7.9378 41.0835 3.78693 42.6462 0.612744C42.695 0.515077 42.6462 0.384853 42.516 0.368576C41.0672 0.205797 33.905 -0.738322 29.8843 1.2313C25.6032 3.33115 28.0124 10.0214 25.5056 14.156C25.2451 14.5955 26.6125 13.9932 26.7264 13.9443C28.8263 13.0002 29.6239 9.98881 35.2072 9.12608Z" fill="#80C41C"/>
<path d="M25.066 6.40747C24.2847 2.79378 21.4198 3.23328 19.1734 0.221868C19.1083 0.124201 18.9618 0.140478 18.913 0.238146C17.7084 2.631 16.2434 5.93541 17.2364 8.55615C18.213 11.1769 21.6477 10.2653 23.3568 15.3278C23.422 15.5068 23.6824 15.5068 23.7475 15.3115C24.7242 12.528 25.7334 9.46771 25.066 6.40747Z" fill="#80C41C"/>
<path d="M112.234 10.8354C108.425 10.8354 105.381 12.3981 103.184 14.791C103.184 14.791 103.2 14.7747 103.2 14.791C103.64 15.4584 107.823 13.7004 112.381 15.2468C115.588 16.3374 117.899 19.1046 118.566 22.4253C118.778 23.4997 118.892 24.6228 118.892 25.746C118.892 31.1665 116.157 35.0895 112.381 35.0895C108.181 35.0895 105.577 31.606 105.577 26.0065C105.577 20.651 107.725 19.6743 111.697 19.4139C111.42 18.0954 110.02 17.0862 108.246 16.6792C104.763 15.8816 101.296 17.9489 100.042 21.3021C99.4236 22.9299 98.9678 24.6391 98.9678 26.3157C98.9678 35.4639 103.933 40.9333 112.251 40.9333C120.894 40.9333 125.566 32.9571 125.566 25.4693C125.55 16.3048 120.585 10.8354 112.234 10.8354Z" fill="white"/>
<path d="M37.8602 10.8354C34.0512 10.8354 31.0072 12.3981 28.8097 14.791C28.8097 14.791 28.826 14.7747 28.826 14.791C29.2655 15.4584 33.4489 13.7004 38.0067 15.2468C41.2135 16.3374 43.5249 19.1046 44.1923 22.4253C44.404 23.4997 44.5179 24.6228 44.5179 25.746C44.5179 31.1665 41.7832 35.0895 38.0067 35.0895C33.807 35.0895 31.2026 31.606 31.2026 26.0065C31.2026 20.651 33.3513 19.6743 37.3231 19.4139C37.0463 18.0954 35.6464 17.0862 33.8722 16.6792C30.3887 15.8816 26.9215 17.9489 25.6681 21.3021C25.0495 22.9299 24.5938 24.6391 24.5938 26.3157C24.5938 35.4639 29.5585 40.9333 37.8765 40.9333C46.5201 40.9333 51.1918 32.9571 51.1918 25.4693C51.1756 16.3048 46.1945 10.8354 37.8602 10.8354Z" fill="white"/>
</svg>
