<svg width="25" height="15" viewBox="0 0 25 15" fill="none" xmlns="http://www.w3.org/2000/svg">
<path d="M17.1351 8.54578C24.2992 7.43306 22.6377 3.54613 24.1011 0.573781C24.1468 0.482324 24.1011 0.360382 23.9791 0.345139C22.6225 0.192711 15.9157 -0.691374 12.1507 1.15301C8.14181 3.11933 10.3977 9.38414 8.05035 13.2558C7.80647 13.6674 9.08686 13.1034 9.19356 13.0577C11.1599 12.1736 11.9068 9.35365 17.1351 8.54578Z" fill="#80C41C"/>
<path d="M7.63909 6.00021C6.90743 2.6163 4.22469 3.02786 2.12118 0.20793C2.06021 0.116473 1.92302 0.131716 1.87729 0.223173C0.749324 2.46387 -0.622531 5.55817 0.307282 8.01226C1.22185 10.4664 4.43809 9.61276 6.03859 14.3533C6.09956 14.521 6.34344 14.521 6.40442 14.338C7.31899 11.7315 8.26404 8.86586 7.63909 6.00021Z" fill="#80C41C"/>
</svg>
