<svg width="17" height="14" viewBox="0 0 17 14" fill="none" xmlns="http://www.w3.org/2000/svg">
<path d="M0.929184 8.15763L0.903392 8.15199L11.9599 8.15199L8.48411 11.6354C8.3139 11.8055 8.22054 12.0358 8.22054 12.2776C8.22054 12.5194 8.3139 12.7482 8.48411 12.9187L9.02493 13.4598C9.195 13.6298 9.42162 13.7239 9.66329 13.7239C9.90509 13.7239 10.1318 13.6305 10.3019 13.4604L16.26 7.50289C16.4307 7.33215 16.5241 7.10472 16.5234 6.86279C16.5241 6.61951 16.4307 6.39195 16.26 6.22148L10.3019 0.263382C10.1318 0.09345 9.90522 -4.6355e-05 9.66329 -4.63761e-05C9.42162 -4.63972e-05 9.195 0.0935844 9.02493 0.263382L8.48411 0.804478C8.31391 0.974275 8.22054 1.20103 8.22054 1.44283C8.22054 1.6845 8.31391 1.8993 8.48411 2.06923L11.9991 5.57211L0.916825 5.57211C0.418851 5.57211 0.000401218 6.00131 0.000401175 6.49901L0.000401108 7.26431C0.000401064 7.76202 0.43121 8.15763 0.929184 8.15763Z" fill="white"/>
</svg>
