<svg width="50" height="50" viewBox="0 0 50 50" fill="none" xmlns="http://www.w3.org/2000/svg">
<rect width="50" height="50" rx="25" fill="white"/>
<path d="M17.6675 26.2958L17.6417 26.2902L28.6981 26.2902L25.2224 29.7736C25.0522 29.9436 24.9588 30.174 24.9588 30.4158C24.9588 30.6576 25.0522 30.8864 25.2224 31.0569L25.7632 31.598C25.9333 31.768 26.1599 31.8621 26.4016 31.8621C26.6434 31.8621 26.8701 31.7687 27.0402 31.5986L32.9983 25.6411C33.169 25.4703 33.2624 25.2429 33.2617 25.001C33.2624 24.7577 33.169 24.5301 32.9983 24.3597L27.0402 18.4016C26.8701 18.2316 26.6435 18.1381 26.4016 18.1381C26.1599 18.1381 25.9333 18.2318 25.7632 18.4016L25.2224 18.9427C25.0522 19.1125 24.9588 19.3392 24.9588 19.581C24.9588 19.8227 25.0522 20.0375 25.2224 20.2074L28.7374 23.7103L17.6551 23.7103C17.1571 23.7103 16.7387 24.1395 16.7387 24.6372L16.7387 25.4025C16.7387 25.9002 17.1695 26.2958 17.6675 26.2958Z" fill="black"/>
</svg>
