<svg width="50" height="50" viewBox="0 0 50 50" fill="none" xmlns="http://www.w3.org/2000/svg">
<rect width="50" height="50" rx="25" fill="#237D26"/>
<path d="M30.7093 27.6482C33.4702 23.7495 32.5468 18.3511 28.6482 15.5909C24.7495 12.8306 19.3511 13.7533 16.5909 17.6526C13.8306 21.5512 14.7533 26.949 18.6526 29.7093C21.4353 31.6794 25.1143 31.8311 28.0493 30.0977L34.4265 36.4367C35.1151 37.1616 36.2607 37.1906 36.9856 36.502C37.7104 35.8141 37.7395 34.6685 37.0515 33.9436C37.0298 33.9205 37.0087 33.8994 36.9856 33.8777L30.7093 27.6482ZM23.6448 28.2391C20.564 28.2398 18.0663 25.744 18.0643 22.6633C18.0636 19.5825 20.5594 17.0847 23.6408 17.0834C26.7176 17.0821 29.2141 19.5739 29.22 22.6507C29.2253 25.7322 26.7308 28.2338 23.6487 28.2391C23.6474 28.2391 23.6468 28.2391 23.6448 28.2391Z" fill="white"/>
</svg>
